<mxfile host="65bd71144e">
    <diagram id="8DPbFP3OJsrsS26NODwg" name="Página-1">
        <mxGraphModel dx="1160" dy="939" grid="0" gridSize="10" guides="1" tooltips="1" connect="1" arrows="1" fold="1" page="1" pageScale="1" pageWidth="1169" pageHeight="827" math="0" shadow="0">
            <root>
                <mxCell id="0"/>
                <mxCell id="1" parent="0"/>
                <mxCell id="7" value="&lt;font style=&quot;font-size: 24px;&quot;&gt;Arquitetura da Solução - Pipeline de dados (ETL, ELT)&amp;nbsp;&lt;/font&gt;&lt;div&gt;&lt;font style=&quot;font-size: 24px;&quot;&gt;~Serviços: CloudRun, CloudBuild&lt;/font&gt;&lt;/div&gt;&lt;div&gt;&lt;font style=&quot;font-size: 24px;&quot;&gt;&lt;span style=&quot;color: rgb(63, 63, 63);&quot;&gt;~Runtime: Python 3.12&lt;/span&gt;&lt;/font&gt;&lt;/div&gt;" style="sketch=0;points=[[0,0,0],[0.25,0,0],[0.5,0,0],[0.75,0,0],[1,0,0],[1,0.25,0],[1,0.5,0],[1,0.75,0],[1,1,0],[0.75,1,0],[0.5,1,0],[0.25,1,0],[0,1,0],[0,0.75,0],[0,0.5,0],[0,0.25,0]];rounded=1;absoluteArcSize=1;arcSize=2;html=1;strokeColor=#6c8ebf;shadow=0;dashed=0;fontSize=12;align=left;verticalAlign=top;spacing=10;spacingTop=-4;whiteSpace=wrap;fillColor=#dae8fc;" vertex="1" parent="1">
                    <mxGeometry x="3" y="6" width="1161" height="818" as="geometry"/>
                </mxCell>
                <mxCell id="8" value="&lt;b&gt;Google &lt;/b&gt;Cloud Platform" style="fillColor=#F6F6F6;strokeColor=none;shadow=0;gradientColor=none;fontSize=14;align=left;spacing=10;fontColor=#717171;9E9E9E;verticalAlign=top;spacingTop=-4;fontStyle=0;spacingLeft=40;html=1;whiteSpace=wrap;" vertex="1" parent="1">
                    <mxGeometry x="463" y="245" width="583" height="479" as="geometry"/>
                </mxCell>
                <mxCell id="9" value="" style="shape=mxgraph.gcp2.google_cloud_platform;fillColor=#F6F6F6;strokeColor=none;shadow=0;gradientColor=none;" vertex="1" parent="8">
                    <mxGeometry width="23" height="20" relative="1" as="geometry">
                        <mxPoint x="20" y="10" as="offset"/>
                    </mxGeometry>
                </mxCell>
                <mxCell id="27" value="" style="strokeColor=#dddddd;shadow=1;strokeWidth=1;rounded=1;absoluteArcSize=1;arcSize=2;fillColor=none;" vertex="1" parent="8">
                    <mxGeometry x="40" y="69" width="511" height="377" as="geometry"/>
                </mxCell>
                <mxCell id="29" value="" style="strokeColor=#dddddd;shadow=1;strokeWidth=1;rounded=1;absoluteArcSize=1;arcSize=2;fillColor=none;" vertex="1" parent="27">
                    <mxGeometry x="20" y="64" width="468.09" height="295" as="geometry"/>
                </mxCell>
                <mxCell id="30" value="Cloud&#xa;Routes" style="editableCssRules=.*;html=1;fontColor=#999999;shape=image;verticalLabelPosition=middle;verticalAlign=middle;labelPosition=right;align=left;spacingLeft=20;part=1;points=[];imageAspect=0;image=data:image/svg+xml,PHN2ZyB4bWxucz0iaHR0cDovL3d3dy53My5vcmcvMjAwMC9zdmciIHhtbG5zOnY9Imh0dHBzOi8vdmVjdGEuaW8vbmFubyIgd2lkdGg9IjIwIiBoZWlnaHQ9IjE5LjI5OTk5OTIzNzA2MDU0NyIgdmlld0JveD0iMCAwIDIwIDE5LjI5OTk5OTIzNzA2MDU0NyI+JiN4YTsJPHN0eWxlIHR5cGU9InRleHQvY3NzIj4mI3hhOwkuc3Qwe2ZpbGw6IzQyODVmNDt9JiN4YTsJLnN0MXtmaWxsOiM2NjlkZjY7fSYjeGE7CTwvc3R5bGU+JiN4YTsJPHBhdGggY2xhc3M9InN0MCIgZD0iTTIuNDMgNi4xSDBWMi42N2gzLjk0bDguNCAxMC40OWgyLjM0di0yLjcyTDIwIDE0Ljg3bC01LjMyIDQuNDN2LTIuNzFoLTMuODd6Ii8+JiN4YTsJPHBhdGggY2xhc3M9InN0MSIgZD0iTTE0LjY4IDYuMTR2Mi43MkwyMCA0LjQzIDE0LjY4IDB2Mi43MWgtMy44N0w4LjMzIDUuODJsMi4xMyAyLjY3IDEuODgtMi4zNXpNMCAxMy4ydjMuNDNoMy45NGwyLjUyLTMuMTUtMi4xMy0yLjY3LTEuOSAyLjM5eiIvPiYjeGE7PC9zdmc+;" vertex="1" parent="29">
                    <mxGeometry width="30" height="28" relative="1" as="geometry">
                        <mxPoint x="15" y="16" as="offset"/>
                    </mxGeometry>
                </mxCell>
                <mxCell id="41" style="edgeStyle=none;html=1;entryX=0;entryY=0.5;entryDx=0;entryDy=0;" edge="1" parent="29" source="31" target="38">
                    <mxGeometry relative="1" as="geometry"/>
                </mxCell>
                <mxCell id="31" value="" style="strokeColor=#dddddd;shadow=1;strokeWidth=1;rounded=1;absoluteArcSize=1;arcSize=2;" vertex="1" parent="29">
                    <mxGeometry x="21.9988362068965" y="67" width="121.05775862068965" height="60" as="geometry"/>
                </mxCell>
                <mxCell id="32" value="Cloud&#xa;Storage" style="editableCssRules=.*;html=1;fontColor=#999999;shape=image;verticalLabelPosition=middle;verticalAlign=middle;labelPosition=right;align=left;spacingLeft=20;part=1;points=[];imageAspect=0;image=data:image/svg+xml,PHN2ZyB4bWxucz0iaHR0cDovL3d3dy53My5vcmcvMjAwMC9zdmciIHhtbG5zOnY9Imh0dHBzOi8vdmVjdGEuaW8vbmFubyIgd2lkdGg9IjIwIiBoZWlnaHQ9IjE2IiB2aWV3Qm94PSIwIDAgMjAgMTYiPiYjeGE7CTxzdHlsZSB0eXBlPSJ0ZXh0L2NzcyI+JiN4YTsJLnN0MHtmaWxsOiM0Mjg1ZjQ7fSYjeGE7CS5zdDF7ZmlsbDojNjY5ZGY2O30mI3hhOwkuc3Qye2ZpbGw6I2FlY2JmYTt9JiN4YTsJLnN0M3tmaWxsOiNmZmY7fSYjeGE7CTwvc3R5bGU+JiN4YTsJPHBhdGggY2xhc3M9InN0MiIgZD0iTTAgMGgyMHY3SDB6Ii8+JiN4YTsJPHBhdGggY2xhc3M9InN0MSIgZD0iTTE4IDBoMnY3aC0yeiIvPiYjeGE7CTxwYXRoIGNsYXNzPSJzdDAiIGQ9Ik0xOCA3bDItN2gtMnoiLz4mI3hhOwk8cGF0aCBjbGFzcz0ic3QxIiBkPSJNMCAwaDJ2N0gweiIvPiYjeGE7CTxnIGNsYXNzPSJzdDMiPiYjeGE7CQk8cGF0aCBkPSJNNCAzaDZ2MUg0eiIvPiYjeGE7CQk8cmVjdCB4PSIxMyIgeT0iMiIgd2lkdGg9IjMiIGhlaWdodD0iMyIgcng9IjEuNSIvPiYjeGE7CTwvZz4mI3hhOwk8cGF0aCBjbGFzcz0ic3QyIiBkPSJNMCA5aDIwdjdIMHoiLz4mI3hhOwk8cGF0aCBjbGFzcz0ic3QxIiBkPSJNMTggOWgydjdoLTJ6Ii8+JiN4YTsJPHBhdGggY2xhc3M9InN0MCIgZD0iTTE4IDE2bDItN2gtMnoiLz4mI3hhOwk8cGF0aCBjbGFzcz0ic3QxIiBkPSJNMCA5aDJ2N0gweiIvPiYjeGE7CTxnIGNsYXNzPSJzdDMiPiYjeGE7CQk8cGF0aCBkPSJNNCAxMmg2djFINHoiLz4mI3hhOwkJPHJlY3QgeD0iMTMiIHk9IjExIiB3aWR0aD0iMyIgaGVpZ2h0PSIzIiByeD0iMS41Ii8+JiN4YTsJPC9nPiYjeGE7PC9zdmc+;" vertex="1" parent="31">
                    <mxGeometry width="30" height="24" relative="1" as="geometry">
                        <mxPoint x="15" y="18" as="offset"/>
                    </mxGeometry>
                </mxCell>
                <mxCell id="36" value="Pub/Sub" style="sketch=0;html=1;verticalAlign=top;labelPosition=center;verticalLabelPosition=bottom;align=center;spacingTop=-6;fontSize=11;fontStyle=1;fontColor=#999999;shape=image;aspect=fixed;imageAspect=0;image=data:image/svg+xml,PHN2ZyB4bWxucz0iaHR0cDovL3d3dy53My5vcmcvMjAwMC9zdmciIHhtbG5zOnY9Imh0dHBzOi8vdmVjdGEuaW8vbmFubyIgd2lkdGg9IjE4LjMxOTk5OTY5NDgyNDIyIiBoZWlnaHQ9IjIwLjAwMDAwMTkwNzM0ODYzMyIgdmlld0JveD0iMCAwIDE4LjMxOTk5OTY5NDgyNDIyIDIwLjAwMDAwMTkwNzM0ODYzMyI+JiN4YTsJPHN0eWxlIHR5cGU9InRleHQvY3NzIj4mI3hhOwkuc3Qwe2ZpbGw6IzY2OWRmNjt9JiN4YTsJLnN0MXtmaWxsOiM0Mjg1ZjQ7fSYjeGE7CS5zdDJ7ZmlsbDojYWVjYmZhO30mI3hhOwk8L3N0eWxlPiYjeGE7CTxkZWZzPiYjeGE7CQk8ZmlsdGVyIGlkPSJBIiB4PSI0LjY0IiB5PSI0LjE5IiB3aWR0aD0iMTQuNzMiIGhlaWdodD0iMTIuNzYiIGZpbHRlclVuaXRzPSJ1c2VyU3BhY2VPblVzZSIgY29sb3ItaW50ZXJwb2xhdGlvbi1maWx0ZXJzPSJzUkdCIj4mI3hhOwkJCTxmZUZsb29kIGZsb29kLWNvbG9yPSIjZmZmIi8+JiN4YTsJCQk8ZmVCbGVuZCBpbj0iU291cmNlR3JhcGhpYyIvPiYjeGE7CQk8L2ZpbHRlcj4mI3hhOwkJPG1hc2sgaWQ9IkIiIHg9IjQuNjQiIHk9IjQuMTkiIHdpZHRoPSIxNC43MyIgaGVpZ2h0PSIxMi43NiIgbWFza1VuaXRzPSJ1c2VyU3BhY2VPblVzZSI+JiN4YTsJCQk8Y2lyY2xlIGN4PSIxMiIgY3k9IjEyLjIzIiByPSIzLjU4IiBmaWx0ZXI9InVybCgjQSkiLz4mI3hhOwkJPC9tYXNrPiYjeGE7CTwvZGVmcz4mI3hhOwk8ZyBjbGFzcz0ic3QwIj4mI3hhOwkJPGNpcmNsZSBjeD0iMTYuMTMiIGN5PSI2LjIxIiByPSIxLjcyIi8+JiN4YTsJCTxjaXJjbGUgY3g9IjIuMTkiIGN5PSI2LjIxIiByPSIxLjcyIi8+JiN4YTsJCTxjaXJjbGUgY3g9IjkuMTYiIGN5PSIxOC4yOCIgcj0iMS43MiIvPiYjeGE7CTwvZz4mI3hhOwk8ZyBtYXNrPSJ1cmwoI0IpIiB0cmFuc2Zvcm09InRyYW5zbGF0ZSgtMi44NCAtMikiPiYjeGE7CQk8cGF0aCB0cmFuc2Zvcm09Im1hdHJpeCguNSAtLjg3IC44NyAuNSAtNC41OSAyMC41MykiIGQ9Ik0xNC42OSAxMC4yMmgxLjU5djguMDRoLTEuNTl6IiBjbGFzcz0ic3QxIi8+JiN4YTsJCTxwYXRoIHRyYW5zZm9ybT0icm90YXRlKDMzMCA4LjUyMyAxNC4yNDQpIiBkPSJNNC40OSAxMy40NWg4LjA0djEuNTlINC40OXoiIGNsYXNzPSJzdDEiLz4mI3hhOwkJPHBhdGggZD0iTTExLjIgNC4xOWgxLjU5djguMDRIMTEuMnoiIGNsYXNzPSJzdDEiLz4mI3hhOwk8L2c+JiN4YTsJPGcgY2xhc3M9InN0MiI+JiN4YTsJCTxjaXJjbGUgY3g9IjkuMTYiIGN5PSIxMC4yMyIgcj0iMi43OCIvPiYjeGE7CQk8Y2lyY2xlIGN4PSIyLjE5IiBjeT0iMTQuMjUiIHI9IjIuMTkiLz4mI3hhOwkJPGNpcmNsZSBjeD0iMTYuMTMiIGN5PSIxNC4yNSIgcj0iMi4xOSIvPiYjeGE7CQk8Y2lyY2xlIGN4PSI5LjE2IiBjeT0iMi4xOSIgcj0iMi4xOSIvPiYjeGE7CTwvZz4mI3hhOzwvc3ZnPg==;" vertex="1" parent="29">
                    <mxGeometry x="163" y="25" width="38" height="42" as="geometry"/>
                </mxCell>
                <mxCell id="37" value="Dataflow" style="sketch=0;html=1;verticalAlign=top;labelPosition=center;verticalLabelPosition=bottom;align=center;spacingTop=-6;fontSize=11;fontStyle=1;fontColor=#999999;shape=image;aspect=fixed;imageAspect=0;image=data:image/svg+xml,PHN2ZyB4bWxucz0iaHR0cDovL3d3dy53My5vcmcvMjAwMC9zdmciIHhtbG5zOnY9Imh0dHBzOi8vdmVjdGEuaW8vbmFubyIgd2lkdGg9IjE0LjUxOTk5OTUwNDA4OTM1NSIgaGVpZ2h0PSIyMCIgdmlld0JveD0iMCAwIDE0LjUxOTk5OTUwNDA4OTM1NSAyMCI+JiN4YTsJPHN0eWxlIHR5cGU9InRleHQvY3NzIj4mI3hhOwkuc3Qwe2ZpbGwtcnVsZTpldmVub2RkfSYjeGE7CS5zdDF7ZmlsbDojNjY5ZGY2O30mI3hhOwkuc3Qye2ZpbGw6I2FlY2JmYTt9JiN4YTsJLnN0M3tmaWxsOiM0Mjg1ZjQ7fSYjeGE7CTwvc3R5bGU+JiN4YTsJPGcgY2xhc3M9InN0MCI+JiN4YTsJCTxwYXRoIGNsYXNzPSJzdDEiIGQ9Ik03LjM3IDIuMDNsLTEuNzIuOTYgMS41MiAxLjUtLjAyIDEuNzMgMS4wMi4wMS4wMi0xLjczIDQuMjQgMi41Ni0uMDEgMS4wNyAxLjc3LjAzVjYuMTFMOS4wNSAzLjA0bC0uMjctLjk0eiIvPiYjeGE7CQk8cGF0aCBjbGFzcz0ic3QyIiBkPSJNNy4zNiAyLjAzbC0xLjQyLjM1LS4yOS42MUwuMzkgNS45Mi4zNiA3Ljk3IDIuMTQgOGwuMDItMS4wNyA0LjMxLTIuNDUtLjAyIDEuNzMuODYuMDEuMDYtNC4xOXoiLz4mI3hhOwkJPGcgY2xhc3M9InN0MSI+JiN4YTsJCQk8cGF0aCBkPSJNNy4zNiAyLjAzTDMuOTUgMCAyLjIxLjk1bDMuNDQgMi4wNCAxLjcyLS45NnptLjcxIDExLjc2bC0xLjcyLS4wMi0uMDIgMS43Mi44MiAyLjQ4IDEuNDItLjEyLjI5LS44NSA1LjI3LTIuOTMuMDMtMi4wOS0xLjc5LS4wMi0uMDIgMS4xLTQuMyAyLjQ1eiIvPiYjeGE7CQkJPHBhdGggZD0iTTcuMTUgMTcuOTdsLTMuNDYgMS45NGgtLjA1bC0xLjY2LS45OSAzLjQ5LTEuOTYgMS42OCAxLjAxeiIvPiYjeGE7CQk8L2c+JiN4YTsJCTxwYXRoIGNsYXNzPSJzdDMiIGQ9Ik0xMC44OC4wOWgtLjA1TDcuMzcgMi4wM2wxLjY4IDEuMDEgMy40OS0xLjk2ek0xMC42MiAyMGgtLjA1bC0zLjQyLTIuMDNoMCAwIDBsMS43Mi0uOTYgMy40NCAyLjA0eiIvPiYjeGE7CQk8cGF0aCBjbGFzcz0ic3QyIiBkPSJNLjMzIDEzLjg5di0yaDEuNzZsLS4wMSAxLjA0IDQuMjUgMi41Ni4wMi0xLjcyLjg2LjAxLS4wNiA0LjE4LTEuNjgtMXoiLz4mI3hhOwk8L2c+JiN4YTsJPGNpcmNsZSBjbGFzcz0ic3QyIiBjeD0iMTMuMzgiIGN5PSIxMC4wNCIgcj0iMS4xNCIvPiYjeGE7CTxjaXJjbGUgY2xhc3M9InN0MiIgY3g9IjEuMTQiIGN5PSI5Ljg4IiByPSIxLjE0Ii8+JiN4YTsJPGNpcmNsZSBjbGFzcz0ic3QyIiBjeD0iNy4zMiIgY3k9IjcuOTkiIHI9IjEuMTQiLz4mI3hhOwk8Y2lyY2xlIGNsYXNzPSJzdDIiIGN4PSI3LjIzIiBjeT0iMTIiIHI9IjEuMTQiLz4mI3hhOzwvc3ZnPg==;" vertex="1" parent="29">
                    <mxGeometry x="311.5" y="134" width="31" height="42" as="geometry"/>
                </mxCell>
                <mxCell id="38" value="" style="strokeColor=#dddddd;shadow=1;strokeWidth=1;rounded=1;absoluteArcSize=1;arcSize=2;" vertex="1" parent="29">
                    <mxGeometry x="311.5" y="219" width="130" height="60" as="geometry"/>
                </mxCell>
                <mxCell id="39" value="Cloud Run" style="editableCssRules=.*;html=1;fontColor=#999999;shape=image;verticalLabelPosition=middle;verticalAlign=middle;labelPosition=right;align=left;spacingLeft=20;part=1;points=[];imageAspect=0;image=data:image/svg+xml,PHN2ZyB4bWxucz0iaHR0cDovL3d3dy53My5vcmcvMjAwMC9zdmciIHhtbG5zOnY9Imh0dHBzOi8vdmVjdGEuaW8vbmFubyIgd2lkdGg9IjM2NS40NjQ5OTY3NzA0MjQ5MyIgaGVpZ2h0PSIzNzkuMjIyOTk0NDYzNTc3OTUiIHZpZXdCb3g9IjAgMCA5Ni42OTU5OTkxNDU1MDc4MSAxMDAuMzM1OTk4NTM1MTU2MjUiPiYjeGE7PHN0eWxlIHR5cGU9InRleHQvY3NzIj4mI3hhOwkuc3Qwe2ZpbGw6IzQyODVmNDt9JiN4YTsJLnN0MXtmaWxsOiNhZWNiZmE7fSYjeGE7PC9zdHlsZT4mI3hhOwk8cGF0aCBjbGFzcz0ic3QwIiBkPSJNMjkuNzk0IDEwMC4zMzZMNDYuOTIgNTAuMTY4aDQ5Ljc3NnpNMCA5OS42NzFsMTIuOTc2LTQ5LjUwMkgyOS4yMkwxNi44OTcgOTIuMDU0eiIvPiYjeGE7CTxwYXRoIGNsYXNzPSJzdDEiIGQ9Ik0yOS43OTQgMEw0Ni45MiA1MC4xNjhoNDkuNzc2ek0wIC42NjZsMTIuOTc2IDQ5LjUwMkgyOS4yMkwxNi44OTcgOC4yODN6Ii8+JiN4YTs8L3N2Zz4=;" vertex="1" parent="38">
                    <mxGeometry width="30" height="30" relative="1" as="geometry">
                        <mxPoint x="15" y="15" as="offset"/>
                    </mxGeometry>
                </mxCell>
                <mxCell id="28" value="Standard&#xa;Network Tier" style="editableCssRules=.*;html=1;fontColor=#999999;shape=image;verticalLabelPosition=middle;verticalAlign=middle;labelPosition=right;align=left;spacingLeft=20;part=1;points=[];imageAspect=0;image=data:image/svg+xml,PHN2ZyB4bWxucz0iaHR0cDovL3d3dy53My5vcmcvMjAwMC9zdmciIHhtbG5zOnY9Imh0dHBzOi8vdmVjdGEuaW8vbmFubyIgd2lkdGg9IjQyNC4wMDEwMzc1OTc2NTYyNSIgaGVpZ2h0PSIyMTMuOTk4Mzk3ODI3MTQ4NDQiIHZpZXdCb3g9Ii0wLjAwMDAyMDQ4Mjg0MTEzNjk4MTczMyAwIDQyNC4wMDEwMzc1OTc2NTYyNSAyMTMuOTk4Mzk3ODI3MTQ4NDQiPiYjeGE7CTxzdHlsZSB0eXBlPSJ0ZXh0L2NzcyI+JiN4YTsJLnN0MHtmaWxsOiM0Mjg1ZjQ7fSYjeGE7CTwvc3R5bGU+JiN4YTsJPHBhdGggY2xhc3M9InN0MCIgZD0iTTk5LjQzMSA0Ni44NTRsLjM3NC4yODkgMTA1Ljc1OCA4My4yMDhhNDIuMDggNDIuMDggMCAwIDEgNC43MTUtLjM4OWwuNzg5LS4wMTNjMTcuNDExLS4wMDQgMzMuMDE4IDEwLjc1OCAzOS4yMjMgMjcuMDQ5czEuNzIxIDM0LjcyNS0xMS4yNzEgNDYuMzMzYTQxLjkzIDQxLjkzIDAgMCAxLTQ3LjI1MyA1Ljk1NiA0Mi4wNCA0Mi4wNCAwIDAgMS0yMi40NDQtNDEuNTcxbC4wNTYtLjUxOS0uMDI2LS4wM0w4Ny43IDU4Ljk3NmMtOS40ODEtMTIuNTYyLS41NzUtMjEuNDg2IDExLjczLTEyLjEyM3ptMzA2LjgzOCAxMjcuNzI2YzkuNzkzIDAgMTcuNzMyIDcuOTQ5IDE3LjczMiAxNy43NTVzLTcuOTM5IDE3Ljc1NS0xNy43MzIgMTcuNzU1LTE3LjczMi03Ljk0OS0xNy43MzItMTcuNzU1IDcuOTM5LTE3Ljc1NSAxNy43MzItMTcuNzU1ek02MC4yNDEgNjguNzk3bDIwLjQyMyAyOC4zMmEyMTcuMTYgMjE3LjE2IDAgMCAwLTQ2LjkyIDk3LjM5OSAxNy4wNCAxNy4wNCAwIDAgMS0xMS4yODggMTIuOTYxYy01LjgyMyAxLjk2NC0xMi4yNTEuNjMzLTE2LjgxOS0zLjQ4MmExNy4wNiAxNy4wNiAwIDAgMS01LjIyOS0xNi4zOGM4LjgxNy00NC4zMDUgMjkuNDk5LTg1LjM3NiA1OS44MzMtMTE4LjgxN3ptMzIyLjc2MiA0MS4zMDhjOS43OTMgMCAxNy43MzIgNy45NDkgMTcuNzMyIDE3Ljc1NXMtNy45MzkgMTcuNzU1LTE3LjczMiAxNy43NTUtMTcuNzMyLTcuOTQ5LTE3LjczMi0xNy43NTUgNy45MzktMTcuNzU1IDE3LjczMi0xNy43NTV6bS00MS42MjgtNTUuMDk0YzkuNzkzIDAgMTcuNzMyIDcuOTQ5IDE3LjczMiAxNy43NTVzLTcuOTM5IDE3Ljc1NS0xNy43MzIgMTcuNzU1LTE3LjczMi03Ljk0OS0xNy43MzItMTcuNzU1IDcuOTM5LTE3Ljc1NSAxNy43MzItMTcuNzU1em0tNTcuNzkyLTM4Ljk3OWM5Ljc5MyAwIDE3LjczMiA3Ljk0OSAxNy43MzIgMTcuNzU1cy03LjkzOSAxNy43NTUtMTcuNzMyIDE3Ljc1NS0xNy43MzItNy45NDktMTcuNzMyLTE3Ljc1NSA3LjkzOS0xNy43NTUgMTcuNzMyLTE3Ljc1NXptLTEzMy4wNzQtNC4zMjdjOS43OTMgMCAxNy43MzIgNy45NDkgMTcuNzMyIDE3Ljc1NXMtNy45MzkgMTcuNzU1LTE3LjczMiAxNy43NTUtMTcuNzMyLTcuOTQ5LTE3LjczMi0xNy43NTUgNy45MzktMTcuNzU1IDE3LjczMi0xNy43NTV6TTIxNy4zNTcgMGM5Ljc5MyAwIDE3LjczMiA3Ljk0OSAxNy43MzIgMTcuNzU1UzIyNy4xNSAzNS41MSAyMTcuMzU3IDM1LjUxcy0xNy43MzItNy45NDktMTcuNzMyLTE3Ljc1NVMyMDcuNTY0IDAgMjE3LjM1NyAweiIgZmlsbD0iIzQyODVmNCIvPiYjeGE7PC9zdmc+;" vertex="1" parent="27">
                    <mxGeometry width="30" height="15" relative="1" as="geometry">
                        <mxPoint x="15" y="22" as="offset"/>
                    </mxGeometry>
                </mxCell>
                <mxCell id="42" style="edgeStyle=none;html=1;entryX=0;entryY=0.5;entryDx=0;entryDy=0;" edge="1" parent="1" source="10" target="13">
                    <mxGeometry relative="1" as="geometry"/>
                </mxCell>
                <mxCell id="10" value="" style="image;aspect=fixed;perimeter=ellipsePerimeter;html=1;align=center;shadow=0;dashed=0;spacingTop=3;image=img/lib/active_directory/user_accounts.svg;" vertex="1" parent="1">
                    <mxGeometry x="140" y="451.5" width="50" height="48.5" as="geometry"/>
                </mxCell>
                <mxCell id="35" style="edgeStyle=none;html=1;" edge="1" parent="1" source="13" target="31">
                    <mxGeometry relative="1" as="geometry"/>
                </mxCell>
                <mxCell id="13" value="" style="strokeColor=#dddddd;shadow=1;strokeWidth=1;rounded=1;absoluteArcSize=1;arcSize=2;" vertex="1" parent="1">
                    <mxGeometry x="281" y="453.75" width="100" height="44" as="geometry"/>
                </mxCell>
                <mxCell id="14" value="Image&#xa;Services" style="sketch=0;dashed=0;connectable=0;html=1;fillColor=#757575;strokeColor=none;shape=mxgraph.gcp2.image_services;part=1;labelPosition=right;verticalLabelPosition=middle;align=left;verticalAlign=middle;spacingLeft=5;fontSize=12;" vertex="1" parent="13">
                    <mxGeometry y="0.5" width="32" height="32" relative="1" as="geometry">
                        <mxPoint x="5" y="-16" as="offset"/>
                    </mxGeometry>
                </mxCell>
                <mxCell id="17" value="Data Transfer" style="sketch=0;html=1;verticalAlign=top;labelPosition=center;verticalLabelPosition=bottom;align=center;spacingTop=-6;fontSize=11;fontStyle=1;fontColor=#999999;shape=image;aspect=fixed;imageAspect=0;image=data:image/svg+xml,PHN2ZyB4bWxucz0iaHR0cDovL3d3dy53My5vcmcvMjAwMC9zdmciIGlkPSJzdmczNjAwOCIgdmVyc2lvbj0iMS4xIiB2aWV3Qm94PSIwIDAgMTIxLjI1MDg4IDEwMC4wNjkyMyIgaGVpZ2h0PSIxMDAuMDY5MjNtbSIgd2lkdGg9IjEyMS4yNTA4OG1tIj4mI3hhOyAgJiN4YTsgIDxkZWZzIGlkPSJkZWZzMzYwMDUiLz4mI3hhOyAgPGcgdHJhbnNmb3JtPSJ0cmFuc2xhdGUoLTQ2LjIyMTU4LC05OC4zMzc4OCkiIGlkPSJsYXllcjEiPiYjeGE7ICAgIDxwYXRoIGQ9Im0gNzkuNjMyOTE4LDE0Ni45MDY4OSA2Ljc2MTM0NSw2LjY3NDAxIC0xNC4xNjk0MiwxNC4yODQ0IGggNDcuMDI4OTA3IHYgOS41MDAyIEggNzIuMjI0ODQzIGwgMTQuMjA4NjkyLDE0LjMzNjU5IC02LjczMDMzOSw2LjcwNTAyIC0yNS41NjYzOTQsLTI1LjY2NDA3IHogbSA2Mi4zNDM0MzIsLTIzLjcxOTU4IC02Ljc2MTM1LDYuNjc0MDEgMTQuMTY5NDIsMTQuMjg0NCBoIC00Ny4wMjg5MSB2IDkuNTAwMTkgaCA0Ny4wMjg5MSBsIC0xNC4yMDg2OSwxNC4zMzY2IDYuNzMwMzMsNi43MDUwMiAyNS41NjY0LC0yNS42NjQwNyB6IiBzdHlsZT0iY29sb3I6IzAwMDAwMDtvcGFjaXR5OjE7ZmlsbDojNDI4NWY0O2ZpbGwtb3BhY2l0eToxO3N0cm9rZS13aWR0aDoxOy1pbmtzY2FwZS1zdHJva2U6bm9uZSIgaWQ9InBhdGgzNjE0Mi02Ii8+JiN4YTsgICAgPHBhdGggaWQ9InBhdGgzNjE0NiIgZD0ibSAxMDUuMzM1OTQsOTguMzM3ODkxIGMgLTExLjEyNjE1NywtMC4wMDg1IC0xOS43MDYxNTEsNC45OTk5MjkgLTI1LjQ3ODUxOCwxMS4xNTQyOTkgLTQuODYwMjQ5LDUuMTgxODkgLTcuODUwMDUzLDExLjAzNjc3IC05LjY2MDE1NiwxNS45OTIxOSAtNy45MTYyNCwxLjUyOTA1IC0xNC45NzI2NTksNS44MzI0NCAtMTkuMDk5NjEsMTIuMTAxNTYgbCAtMC4wODIwMywwLjEyNSAtMC4wNzQyMiwwLjEyODkgYyAtMy44NTQxNTcsNi43NDA3NCAtNS4wNjQ5NTksMTIuNDUwODYgLTQuNjM4NjcyLDE3LjI5MTAyIDAuMjM0MDk5LDIuNjU4MDIgMC44OTI4Nyw0Ljk0NSAxLjYyNTExOCw2Ljk0OTk5IGwgNy45ODk2ODcsLTYuNjU1NTggYyAtMC4wNjcxMiwtMC4zNzM1IC0wLjExODQ2OCwtMC43NDg2NSAtMC4xNTE5MTQsLTEuMTI4NCAtMC4yNDI0LC0yLjc1MjI5IDAuMjUzNjU4LC02LjExNTY3IDMuMzMwMDc4LC0xMS41NTY2NCAyLjgwMDQzMiwtNC4xODk2NSA4Ljg1Mjc1NiwtNy44NjkzMyAxNS4xMDM1MTYsLTguNDIxODcgbCAzLjIwODk4NCwtMC4yODMyIDAuOTIzODI4LC0zLjA4NTk0IGMgMS4yNTQ5ODEsLTQuMTkwMDIgNC4wNDA3NTksLTEwLjI1NDYyIDguNDUzMTI1LC0xNC45NTg5OSA0LjQxMjM2NiwtNC43MDQzNiAxMC4xNzYxMywtOC4xNTg3NSAxOC41NTA3ODQsLTguMTUyMzQgeiIgc3R5bGU9ImNvbG9yOiMwMDAwMDA7b3BhY2l0eToxO2ZpbGw6I2FlY2JmYTtmaWxsLW9wYWNpdHk6MTstaW5rc2NhcGUtc3Ryb2tlOm5vbmUiLz4mI3hhOyAgICA8cGF0aCBpZD0icGF0aDM2MTQ4IiBkPSJtIDEwNS4zMzU5NCw5OC4zMzc4OTEgdiA5LjQ5OTk5OSBjIDkuNDA2OTksMCAxNi40NDYyOSwzLjY2MzUyIDIzLjU2OTA1LDEzLjkzMDExIGwgNi45OTQyOCwtNi41MzY0NSBDIDEyNy42MDIxOCwxMDMuOTc3ODYgMTE3LjE5MzcxLDk4LjMzNzg5MSAxMDUuMzM1OTQsOTguMzM3ODkxIFoiIHN0eWxlPSJjb2xvcjojMDAwMDAwO29wYWNpdHk6MTtmaWxsOiM2NjlkZjY7ZmlsbC1vcGFjaXR5OjE7LWlua3NjYXBlLXN0cm9rZTpub25lIi8+JiN4YTsgIDwvZz4mI3hhOzwvc3ZnPg==;" vertex="1" parent="1">
                    <mxGeometry x="306" y="396" width="42" height="35" as="geometry"/>
                </mxCell>
            </root>
        </mxGraphModel>
    </diagram>
</mxfile>